<?xml version="1.0" encoding="utf-8"?>
<!-- Generator: Adobe Illustrator 16.0.0, SVG Export Plug-In . SVG Version: 6.00 Build 0)  -->
<!DOCTYPE svg PUBLIC "-//W3C//DTD SVG 1.1//EN" "http://www.w3.org/Graphics/SVG/1.1/DTD/svg11.dtd">
<svg version="1.1" id="レイヤー_1" xmlns="http://www.w3.org/2000/svg" xmlns:xlink="http://www.w3.org/1999/xlink" x="0px"
	 y="0px" width="140.667px" height="22px" viewBox="0 0 140.667 22" enable-background="new 0 0 140.667 22" xml:space="preserve">
<g id="レイヤー_2_1_">
</g>
<g id="レイヤー_1_2_">
	<g id="レイヤー_1_1_" display="none">
		<path display="inline" d="M7.887,18.607L7.143,19.16c-0.528-1.104-1.417-2.832-2.304-4.369c-0.48,2.666-1.584,5.064-3.697,7.082
			l-0.648-0.625c2.952-2.783,3.816-6.359,3.816-10.44V0.127h0.864v10.681c0,0.959-0.048,1.896-0.144,2.786
			C6.087,15.297,7.239,17.385,7.887,18.607z M2.751,4.711c-0.216,2.304-0.648,4.896-1.368,6.336l-0.768-0.24
			c0.792-1.464,1.248-3.984,1.392-6.192L2.751,4.711z M8.415,4.015c-0.504,1.56-1.32,3.792-2.184,5.737l-0.6-0.288
			c0.864-1.969,1.632-4.226,2.04-5.737L8.415,4.015z M10.359,16.447c-0.432,1.992-1.368,4.152-2.592,5.377l-0.768-0.432
			c1.272-1.201,2.184-3.267,2.568-5.16L10.359,16.447z M9.183,7.64c-0.168,0.312-0.384,0.6-0.576,0.864l-0.72-0.433
			c1.752-2.329,2.809-4.944,3.36-7.921l0.816,0.096c-0.144,0.792-0.336,1.536-0.552,2.28h2.856h0.144h0.12l0.576,0.096
			c-0.696,5.544-2.952,9.603-6.48,11.931l-0.624-0.625c1.656-1.031,3-2.448,4.056-4.201C11.368,9.031,10.384,8.334,9.183,7.64z
			 M12.495,9.104c0.36-0.672,0.672-1.392,0.912-2.16c-0.744-0.624-1.704-1.2-2.88-1.776c-0.288,0.648-0.625,1.297-0.984,1.921
			C10.72,7.76,11.703,8.432,12.495,9.104z M13.648,6.224c0.264-0.912,0.48-1.896,0.648-2.929h-3.024
			c-0.144,0.432-0.312,0.863-0.48,1.271C11.92,5.118,12.88,5.671,13.648,6.224z M13,16.52c0.528,1.752,0.816,3.312,0.888,4.656
			L13,21.344c-0.024-1.344-0.264-2.904-0.768-4.584L13,16.52z M22.721,14l-0.648,0.721c-1.656-1.271-2.856-3.625-3.552-7.489
			c-0.576,3.24-1.752,5.665-4.321,7.345l-0.648-0.625c2.809-1.8,3.913-4.487,4.345-8.256h-2.641V4.88h2.736
			c0.12-1.44,0.192-3.024,0.216-4.753l0.84,0.024c-0.024,1.704-0.096,3.288-0.216,4.729h3.528v0.815h-3.265
			C19.672,10.111,20.92,12.752,22.721,14z M16.36,16.473c0.816,1.729,1.32,3.264,1.56,4.607l-0.816,0.24
			c-0.216-1.344-0.696-2.904-1.44-4.584L16.36,16.473z M19.696,15.92c1.368,2.016,2.328,3.936,2.904,5.592l-0.84,0.312
			c-0.528-1.68-1.464-3.576-2.784-5.568L19.696,15.92z M20.44,0.486c0.912,1.032,1.56,2.017,1.944,2.952l-0.672,0.288
			c-0.384-0.912-0.984-1.872-1.824-2.904L20.44,0.486z"/>
		<path display="inline" d="M31.287,8.168c-0.72-2.16-1.464-4.152-2.232-5.81l0.96-0.408c0.768,1.729,1.512,3.744,2.208,5.88
			c2.4-0.792,4.777-1.535,6.576-1.896c-0.646-1.44-1.967-3.577-2.928-4.705l0.84-0.456c1.033,1.224,2.4,3.6,3.049,4.993
			c0.385-0.048,0.721-0.072,1.031-0.072c3.648,0,5.521,1.584,5.521,4.92c0,2.737-1.849,4.562-5.209,4.562
			c-0.959,0-2.185-0.145-3.386-0.504l0.072-0.938c1.201,0.385,2.354,0.529,3.267,0.529c2.782,0,4.295-1.439,4.295-3.676
			c0-2.712-1.486-3.96-4.654-3.96c-1.656,0-4.873,0.936-8.186,2.088c1.368,4.179,2.544,8.689,3.215,12.312l-1.007,0.218
			c-0.624-3.576-1.8-8.088-3.12-12.218c-1.944,0.696-3.889,1.416-5.545,2.04l-0.336-0.96C27.375,9.535,29.343,8.84,31.287,8.168z"/>
		<path display="inline" d="M62.945,4.015c0-1.152-0.025-2.256-0.025-3.168h1.008v3.168h6.578v0.888h-6.578v6.192v0.143
			C63.977,11.503,64,11.791,64,12.08c0,4.607-0.936,7.729-7.152,9.385l-0.432-0.912c4.824-1.225,6.145-3.168,6.48-6.266
			c-0.793,1.033-1.97,1.633-3.338,1.633c-2.711,0-4.199-1.775-4.199-4.249c0-2.257,1.656-4.273,4.176-4.273
			c1.488,0,2.666,0.528,3.434,1.464c-0.023-1.224-0.023-2.616-0.023-3.96h-11.69V4.015H62.945L62.945,4.015z M59.559,8.287
			c-1.848,0-3.264,1.584-3.264,3.408c0,2.062,1.32,3.361,3.361,3.361c1.941,0,3.311-1.922,3.311-3.48v-0.145
			C62.752,9.392,61.457,8.287,59.559,8.287z"/>
	</g>
	<g enable-background="new    ">
		<path d="M18.15,19.256c0,1.192-0.337,1.936-1.597,2.114c-0.675,0.09-2.407,0.045-3.711,0l-0.203-1.282
			c1.125,0.092,2.744,0.092,3.261,0.046c0.787-0.067,0.945-0.45,0.945-1.103V3.354H1.012V2.163h20.467v1.191H18.15V19.256z
			 M5.218,6.998h7.558v8.457H5.218v1.73H3.981V6.998h0.652H5.218z M11.516,14.285v-6.14H5.218v6.14H11.516z"/>
		<path d="M30.451,18.199l-0.967,0.697c-0.427-0.967-1.169-2.431-1.912-3.802c-0.495,2.384-1.507,4.521-3.374,6.319l-0.877-0.766
			c2.722-2.586,3.486-5.869,3.486-9.625V0.926h1.125v10.099c0,0.877-0.045,1.731-0.135,2.542
			C28.787,15.141,29.844,17.052,30.451,18.199z M25.525,5.244c-0.18,2.182-0.54,4.633-1.192,6.005l-0.922-0.314
			c0.697-1.372,1.08-3.711,1.192-5.803L25.525,5.244z M30.901,4.592c-0.472,1.484-1.214,3.531-2.024,5.353l-0.72-0.359
			c0.765-1.822,1.462-3.914,1.822-5.331L30.901,4.592z M32.858,16.332c-0.382,1.845-1.26,3.893-2.384,5.061l-0.99-0.517
			c1.147-1.125,2.002-3.06,2.362-4.836L32.858,16.332z M31.666,8.303c-0.158,0.271-0.337,0.518-0.495,0.765l-0.922-0.562
			c1.642-2.227,2.609-4.723,3.059-7.557l1.08,0.135c-0.135,0.697-0.292,1.395-0.472,2.069h2.339h0.18h0.157l0.72,0.112
			c-0.63,5.376-2.699,9.221-6.005,11.403l-0.787-0.787c1.507-0.922,2.744-2.182,3.689-3.778C33.533,9.495,32.678,8.91,31.666,8.303z
			 M34.612,9.315c0.292-0.585,0.54-1.192,0.765-1.845c-0.652-0.518-1.462-1.012-2.452-1.507c-0.248,0.562-0.54,1.124-0.832,1.664
			C33.105,8.19,33.938,8.753,34.612,9.315z M35.647,6.616c0.202-0.787,0.382-1.619,0.495-2.475h-2.519
			c-0.112,0.36-0.248,0.742-0.405,1.103C34.185,5.693,34.995,6.144,35.647,6.616z M35.354,16.354
			c0.472,1.666,0.72,3.104,0.787,4.408l-1.102,0.182c-0.022-1.282-0.225-2.744-0.675-4.342L35.354,16.354z M44.284,13.857
			l-0.788,0.944c-1.462-1.124-2.519-3.104-3.171-6.229c-0.585,2.677-1.687,4.679-3.846,6.117l-0.81-0.81
			c2.542-1.619,3.531-4.049,3.936-7.467h-2.317v-1.08h2.429c0.112-1.327,0.157-2.789,0.18-4.408l1.08,0.022
			c-0.022,1.597-0.067,3.059-0.18,4.386h3.149v1.08h-2.969C41.517,10.327,42.642,12.711,44.284,13.857z M38.458,16.311
			c0.72,1.619,1.192,3.06,1.417,4.34l-1.035,0.271c-0.202-1.281-0.607-2.744-1.282-4.318L38.458,16.311z M41.562,15.77
			c1.237,1.912,2.114,3.689,2.631,5.241l-1.102,0.382c-0.472-1.574-1.282-3.351-2.474-5.24L41.562,15.77z M42.259,1.263
			c0.81,0.968,1.372,1.867,1.732,2.744l-0.833,0.338c-0.337-0.833-0.854-1.732-1.619-2.677L42.259,1.263z"/>
		<path d="M47.521,16.398c0-1.371,0.855-3.125,2.182-4.654l1.035,0.697c-1.102,1.281-1.844,2.722-1.844,3.801
			c0,2.002,2.271,2.632,7.669,2.632c1.754,0,4.499-0.202,6.298-0.63l0.225,1.372c-1.867,0.358-4.655,0.585-6.612,0.585
			c-5.96,0-8.952-0.878-8.952-3.779L47.521,16.398L47.521,16.398z M55.303,4.164c2.204,0,4.318-0.045,6.185-0.18l0.63,1.215
			c-1.17,0.697-3.936,2.631-5.42,3.756L55.82,8.123c1.26-0.899,3.171-2.204,4.094-2.834c-1.372,0.045-3.149,0.112-4.881,0.112
			c-2.361,0-4.386-0.18-6.478-0.45l0.225-1.259c2.069,0.337,4.093,0.472,6.5,0.472H55.303z M61.533,0.476
			c0.72,1.013,1.282,2.092,1.754,3.284l-0.832,0.427c-0.427-1.124-1.012-2.271-1.709-3.283L61.533,0.476z M64.367,0.139
			c0.72,1.012,1.327,2.137,1.799,3.328l-0.854,0.405C64.93,2.725,64.3,1.578,63.603,0.565L64.367,0.139z"/>
		<path d="M82.38,11.969c-2.205-0.494-4.408-0.832-6.365-0.899c-0.473,1.417-0.967,2.745-1.417,3.846
			c-1.147,2.744-2.136,3.779-3.666,3.779c-1.709,0-2.654-1.688-2.654-3.621c0-3.127,1.934-5.151,6.815-5.219
			c0.652-2.047,1.26-4.161,1.664-5.825c-1.619,0.135-4.701,0.338-6.837,0.45l-0.09-1.26c2.271,0,5.691-0.225,7.602-0.45l0.944,0.562
			c-0.519,1.8-1.215,4.229-1.979,6.545c1.89,0.09,4.024,0.405,6.142,0.832c0.135-1.281,0.18-2.653,0.225-4.115l1.326,0.022
			c-0.045,1.574-0.135,3.014-0.293,4.363c1.147,0.27,2.295,0.562,3.375,0.876l-0.428,1.283c-1.013-0.315-2.07-0.607-3.127-0.878
			c-0.675,3.823-2.228,6.702-5.824,8.614l-0.832-1.059C80.447,18.042,81.818,15.41,82.38,11.969z M69.47,15.005
			c0,1.306,0.54,2.34,1.484,2.34c0.944,0,1.573-0.696,2.45-2.788c0.405-0.969,0.854-2.183,1.283-3.465
			C70.708,11.227,69.47,12.688,69.47,15.005z"/>
		<path d="M94.253,12.509c-0.696,0-1.303-0.606-1.303-1.327s0.605-1.327,1.325-1.327s1.327,0.607,1.327,1.327
			s-0.607,1.327-1.327,1.327H94.253z"/>
		<path d="M117.353,7.358c-3.285,1.507-7.85,3.014-12.35,4.07V15.5c0,2.384,1.08,3.262,3.486,3.441
			c0.787,0.066,2.271,0.111,3.848,0.111c1.955,0,4.16-0.09,5.576-0.292v1.396c-1.664,0.111-3.801,0.18-5.779,0.18
			c-1.508,0-2.879-0.021-3.778-0.066c-3.015-0.182-4.746-1.463-4.746-4.545V2.433h1.396v7.715c4.205-0.945,8.793-2.542,11.627-3.981
			L117.353,7.358z M115.869,1.848c0.943,0.899,1.775,1.957,2.519,3.059l-0.696,0.518c-0.697-1.102-1.552-2.182-2.451-3.036
			L115.869,1.848z M118.162,0.521c0.945,0.9,1.777,1.957,2.521,3.06l-0.697,0.517c-0.696-1.102-1.552-2.182-2.476-3.036
			L118.162,0.521z"/>
		<path d="M129.855,7.808l-0.922,1.08c-1.215-1.08-4.003-3.104-5.848-4.094l0.877-1.102C125.852,4.816,128.46,6.661,129.855,7.808z
			 M138.919,7.854l0.922,1.012c-3.035,5.061-9.379,9.94-15.586,11.718l-0.676-1.327C129.63,17.682,135.996,12.891,138.919,7.854z"/>
	</g>
</g>
</svg>
