<?xml version="1.0" encoding="utf-8"?>
<!-- Generator: Adobe Illustrator 16.0.0, SVG Export Plug-In . SVG Version: 6.00 Build 0)  -->
<!DOCTYPE svg PUBLIC "-//W3C//DTD SVG 1.1//EN" "http://www.w3.org/Graphics/SVG/1.1/DTD/svg11.dtd">
<svg version="1.1" id="レイヤー_2" xmlns="http://www.w3.org/2000/svg" xmlns:xlink="http://www.w3.org/1999/xlink" x="0px"
	 y="0px" width="111px" height="22px" viewBox="0 0 111 22" enable-background="new 0 0 111 22" xml:space="preserve">
<g>
	<path d="M16.194,2.86l0.518,1.169c-2.52,1.597-6.838,4.386-8.772,5.623c3.802-0.382,8.659-0.81,11.381-1.169l0.202,1.214
		c-2.271,0.203-3.554,0.45-4.947,1.125c-2.722,1.305-4.634,3.059-4.634,5.15c0,2.25,2.159,3.237,6.815,3.51l-0.248,1.326
		c-5.442-0.404-7.939-1.8-7.939-4.634c0-2.43,1.912-4.297,4.769-5.826C9.83,10.664,5.084,11.114,1.53,11.677l-0.202-1.305
		C2.79,10.237,4.207,10.057,5.287,9.9c2.159-1.215,6.5-4.026,8.884-5.735c-2.406,0.09-7.534,0.27-10.009,0.292L4.094,3.22
		C6.815,3.22,13.428,3.041,16.194,2.86z"/>
	<path d="M23.547,13.139c0-4.97,3.936-9.671,9.514-9.671c5.848,0,8.637,3.284,8.637,7.939c0,4.362-2.092,7.714-8.187,9.019
		l-0.63-1.281c5.646-1.035,7.422-3.891,7.422-7.736c0-4.071-2.496-6.635-7.04-6.68c-0.27,8.636-2.991,14.461-6.05,14.461
		c-2.002,0-3.666-2.834-3.666-6.026V13.139z M24.829,13.139c0,2.385,1.102,4.633,2.406,4.633c2.002,0,4.521-4.946,4.701-12.954
		C27.573,5.402,24.829,9.09,24.829,13.139z"/>
	<path d="M49.657,21.416h-1.282V8.798c-0.832,1.395-1.754,2.745-2.744,3.981l-0.899-0.967c2.587-3.127,4.679-7.063,5.735-10.887
		l1.26,0.292c-0.518,1.731-1.215,3.508-2.069,5.24L49.657,21.416L49.657,21.416z M64.479,5.312
		c-0.046,6.432-0.068,9.625-0.54,10.098c-0.226,0.203-0.45,0.27-0.854,0.293c-0.383,0.021-1.281,0-1.754-0.023l-0.136-1.213
		c0.45,0.045,1.171,0.066,1.529,0.045c0.135,0,0.226-0.022,0.293-0.113c0.226-0.293,0.226-2.789,0.226-7.872l-3.531,1.484v8.12
		h-1.215V8.528l-3.51,1.484v7.489c0,1.844,0.562,2.25,1.979,2.271c1.463,0.045,3.824,0.023,5.398,0
		c1.688-0.045,1.821-0.18,1.889-2.744l1.215,0.228c-0.201,3.351-0.518,3.711-2.99,3.756c-1.688,0.046-4.07,0.046-5.623,0
		c-2.294-0.045-3.104-0.721-3.104-3.485v-6.974l-2.699,1.147l-0.473-1.102l3.172-1.372v-6.05h1.236v5.533l3.509-1.507V0.926h1.215
		v5.758l3.531-1.529L64.479,5.312z"/>
	<path d="M81.099,18.02h-7.13l1.17,0.562c-1.754,1.102-4.363,2.158-6.612,2.811l-1.282-0.719c2.295-0.607,4.836-1.553,6.612-2.654
		h-3.463V9.045h14.528v8.975h-3.621c2.541,0.922,4.701,1.821,6.591,2.698l-1.306,0.652c-1.73-0.854-3.912-1.754-6.478-2.724
		L81.099,18.02z M73.069,5.807l0.227,0.945c-1.575,0.742-3.914,1.799-5.264,2.361C67.986,9,67.941,8.911,67.493,8.079
		C68.863,7.561,71.428,6.526,73.069,5.807z M68.795,1.151c1.801,0.607,3.285,1.26,4.408,2.002l-0.72,0.922
		c-1.058-0.765-2.519-1.439-4.25-2.024L68.795,1.151z M71.652,11.789h11.943V9.945H71.652V11.789z M71.652,14.443h11.943v-1.867
		H71.652V14.443z M71.652,17.143h11.943v-1.889H71.652V17.143z M87.825,7.921l-0.697,1.035c-3.104-0.337-5.602-1.237-7.197-3.464
		c-0.877,1.642-2.588,2.677-5.915,3.374l-0.812-0.855c4.387-0.765,5.78-2.204,6.23-4.565h-2.699
		c-0.63,0.899-1.372,1.687-2.158,2.361l-1.08-0.517c1.418-1.102,2.723-2.654,3.375-4.386l1.102,0.225
		c-0.18,0.473-0.383,0.922-0.631,1.35h8.48h0.383h0.225l0.675,0.067c-0.519,1.17-1.372,2.542-2.183,3.554l-1.17-0.27
		c0.586-0.697,1.192-1.597,1.643-2.384h-4.79c-0.045,0.27-0.09,0.517-0.157,0.765C81.773,6.751,84.473,7.741,87.825,7.921z"/>
	<path d="M90.633,7.134c1.688,0.945,3.06,1.889,4.049,2.834l-0.898,0.899C92.838,9.9,91.512,8.91,89.915,8.011L90.633,7.134z
		 M93.625,13.725l0.943,0.674c-0.832,2.228-2.203,5.265-3.148,6.884l-1.08-0.652C91.308,19.055,92.792,15.973,93.625,13.725z
		 M91.397,1.106c1.643,0.877,2.926,1.754,3.869,2.654l-0.876,0.9c-0.899-0.899-2.159-1.822-3.688-2.676L91.397,1.106z
		 M104.893,20.043c0,0.766-0.225,1.215-0.898,1.328c-0.496,0.066-1.731,0.045-2.633,0.021l-0.18-1.123
		c0.697,0.021,1.754,0.045,2.047,0.021c0.337-0.021,0.45-0.181,0.45-0.474v-6.59h-4.161V5.649h3.396
		c0.314-0.945,0.606-1.957,0.811-2.767H97.65v6.68c0,4.183-0.696,8.277-2.834,11.605l-1.058-0.674
		c2.048-3.148,2.677-6.951,2.677-10.931V1.758h0.767h0.448h12.729v1.125h-5.354c-0.247,0.833-0.584,1.822-0.943,2.767h5.217v7.579
		h-4.407L104.893,20.043L104.893,20.043z M101.745,15.096c-0.697,1.912-1.957,3.846-3.24,5.195l-1.012-0.518
		c1.26-1.326,2.496-3.148,3.172-5.062L101.745,15.096z M100.687,8.978h7.399V6.639h-7.399V8.978z M100.687,12.262h7.399V9.81h-7.399
		V12.262z M107.793,14.713c1.306,1.846,2.205,3.531,2.768,5.039l-1.102,0.449c-0.519-1.506-1.418-3.238-2.633-5.037L107.793,14.713z
		"/>
</g>
</svg>
