<?xml version="1.0" encoding="utf-8"?>
<!-- Generator: Adobe Illustrator 16.0.0, SVG Export Plug-In . SVG Version: 6.00 Build 0)  -->
<!DOCTYPE svg PUBLIC "-//W3C//DTD SVG 1.1//EN" "http://www.w3.org/Graphics/SVG/1.1/DTD/svg11.dtd">
<svg version="1.1" id="レイヤー_2" xmlns="http://www.w3.org/2000/svg" xmlns:xlink="http://www.w3.org/1999/xlink" x="0px"
	 y="0px" width="219px" height="22px" viewBox="0 0 219 22" enable-background="new 0 0 219 22" xml:space="preserve">
<g enable-background="new    ">
	<path fill="#F7F9F9" d="M11.741,21.393h-1.305V7.763c-2.227,2.812-5.083,5.264-8.367,7.242l-0.99-0.944
		C5.78,11.384,9.604,7.695,11.763,3.399H1.237V2.208h19.995v1.191H13.18c-0.405,0.854-0.9,1.71-1.439,2.52V21.393z M13.607,7.179
		c3.216,2.474,5.78,4.745,7.827,6.792l-1.057,0.877c-1.957-2.069-4.543-4.431-7.692-6.904L13.607,7.179z"/>
	<path fill="#F7F9F9" d="M30.451,18.199l-0.967,0.697c-0.427-0.967-1.169-2.43-1.912-3.801c-0.495,2.384-1.507,4.521-3.374,6.319
		l-0.877-0.765c2.722-2.586,3.486-5.87,3.486-9.626V0.926h1.125v10.099c0,0.877-0.045,1.731-0.135,2.541
		C28.787,15.141,29.844,17.052,30.451,18.199z M25.525,5.244c-0.18,2.182-0.54,4.633-1.192,6.005l-0.922-0.314
		c0.697-1.372,1.08-3.711,1.192-5.803L25.525,5.244z M30.901,4.592c-0.472,1.484-1.214,3.531-2.024,5.353l-0.72-0.359
		c0.765-1.822,1.462-3.914,1.822-5.331L30.901,4.592z M32.858,16.332c-0.382,1.845-1.26,3.892-2.384,5.061l-0.99-0.517
		c1.147-1.125,2.002-3.06,2.362-4.836L32.858,16.332z M31.666,8.303c-0.158,0.27-0.337,0.518-0.495,0.765l-0.922-0.562
		c1.642-2.227,2.609-4.723,3.059-7.557l1.08,0.135c-0.135,0.697-0.292,1.395-0.472,2.069h2.339h0.18h0.157l0.72,0.112
		c-0.63,5.376-2.699,9.222-6.005,11.403l-0.787-0.787c1.507-0.922,2.744-2.182,3.689-3.778C33.533,9.495,32.678,8.91,31.666,8.303z
		 M34.612,9.315c0.292-0.585,0.54-1.192,0.765-1.845c-0.652-0.518-1.462-1.012-2.452-1.507c-0.248,0.562-0.54,1.124-0.832,1.664
		C33.105,8.19,33.938,8.753,34.612,9.315z M35.647,6.616c0.202-0.787,0.382-1.619,0.495-2.475h-2.519
		c-0.112,0.36-0.248,0.742-0.405,1.103C34.185,5.693,34.995,6.144,35.647,6.616z M35.354,16.354c0.472,1.665,0.72,3.104,0.787,4.408
		l-1.102,0.181c-0.022-1.282-0.225-2.744-0.675-4.341L35.354,16.354z M44.284,13.858l-0.788,0.944
		c-1.462-1.124-2.519-3.104-3.171-6.23c-0.585,2.677-1.687,4.679-3.846,6.118l-0.81-0.81c2.542-1.619,3.531-4.049,3.936-7.467
		h-2.317v-1.08h2.429c0.112-1.327,0.157-2.789,0.18-4.408l1.08,0.022c-0.022,1.597-0.067,3.059-0.18,4.386h3.149v1.08h-2.969
		C41.517,10.327,42.642,12.711,44.284,13.858z M38.458,16.31c0.72,1.62,1.192,3.06,1.417,4.341l-1.035,0.271
		c-0.202-1.282-0.607-2.744-1.282-4.318L38.458,16.31z M41.562,15.77c1.237,1.912,2.114,3.689,2.631,5.241l-1.102,0.382
		c-0.472-1.574-1.282-3.351-2.474-5.24L41.562,15.77z M42.259,1.263c0.81,0.968,1.372,1.867,1.732,2.744l-0.833,0.338
		c-0.337-0.833-0.854-1.732-1.619-2.677L42.259,1.263z"/>
	<path fill="#F7F9F9" d="M47.521,16.399c0-1.372,0.855-3.126,2.182-4.655l1.035,0.697c-1.102,1.282-1.844,2.722-1.844,3.801
		c0,2.002,2.271,2.632,7.669,2.632c1.754,0,4.499-0.202,6.298-0.63l0.225,1.372c-1.867,0.359-4.655,0.585-6.612,0.585
		c-5.96,0-8.952-0.878-8.952-3.779V16.399z M55.303,4.164c2.204,0,4.318-0.045,6.185-0.18l0.63,1.215
		c-1.17,0.697-3.936,2.631-5.42,3.756L55.82,8.123c1.26-0.899,3.171-2.204,4.094-2.834c-1.372,0.045-3.149,0.112-4.881,0.112
		c-2.361,0-4.386-0.18-6.478-0.45l0.225-1.259c2.069,0.337,4.093,0.472,6.5,0.472H55.303z M61.533,0.476
		c0.72,1.013,1.282,2.092,1.754,3.284l-0.832,0.427c-0.427-1.124-1.012-2.271-1.709-3.283L61.533,0.476z M64.367,0.139
		c0.72,1.012,1.327,2.137,1.799,3.328l-0.854,0.405C64.93,2.725,64.3,1.578,63.603,0.565L64.367,0.139z"/>
	<path fill="#F7F9F9" d="M82.38,11.969c-2.204-0.494-4.408-0.832-6.365-0.899c-0.472,1.417-0.967,2.744-1.417,3.846
		c-1.147,2.744-2.136,3.779-3.666,3.779c-1.709,0-2.654-1.688-2.654-3.621c0-3.127,1.934-5.151,6.815-5.219
		c0.652-2.047,1.259-4.161,1.664-5.825c-1.619,0.135-4.701,0.338-6.837,0.45l-0.09-1.26c2.271,0,5.69-0.225,7.602-0.45l0.945,0.562
		c-0.518,1.8-1.214,4.229-1.979,6.545c1.89,0.09,4.026,0.405,6.141,0.832c0.135-1.281,0.18-2.653,0.225-4.115l1.327,0.022
		c-0.045,1.574-0.135,3.014-0.292,4.363c1.147,0.27,2.294,0.562,3.374,0.877l-0.427,1.282c-1.012-0.315-2.069-0.607-3.126-0.877
		c-0.674,3.823-2.227,6.702-5.825,8.614l-0.832-1.058C80.446,18.042,81.818,15.41,82.38,11.969z M69.47,15.005
		c0,1.305,0.54,2.34,1.484,2.34c0.945,0,1.575-0.697,2.452-2.789c0.405-0.968,0.854-2.182,1.282-3.464
		C70.708,11.227,69.47,12.688,69.47,15.005z"/>
	<path fill="#F7F9F9" d="M94.254,12.509c-0.697,0-1.304-0.607-1.304-1.327s0.607-1.327,1.327-1.327s1.327,0.607,1.327,1.327
		s-0.607,1.327-1.327,1.327H94.254z"/>
	<path fill="#F7F9F9" d="M101.495,17.861l-0.944-0.989c3.644-2.114,7.242-5.96,9.199-10.256h-8.839V5.424h9.558V0.926h1.305v4.498
		h9.604v1.192h-8.794c1.934,4.251,5.555,8.029,9.176,10.121l-0.967,1.057c-3.486-2.204-6.973-5.96-9.02-10.256v8.255h4.408v1.191
		h-4.408v4.431h-1.305v-4.431h-4.385v-1.191h4.385V7.718C108.4,11.969,104.959,15.702,101.495,17.861z"/>
	<path fill="#F7F9F9" d="M127.988,12.509c-0.697,0-1.304-0.607-1.304-1.327s0.606-1.327,1.327-1.327
		c0.719,0,1.326,0.607,1.326,1.327s-0.607,1.327-1.326,1.327H127.988z"/>
	<path fill="#F7F9F9" d="M146.791,10.709c0,0.607,0.135,0.72,0.742,0.72c0.517,0,1.529,0,2.113,0c0.675,0,0.72-0.067,0.766-1.349
		l1.012,0.202c-0.135,1.89-0.36,2.092-1.664,2.114c-0.676,0.022-1.777,0.022-2.362,0c-1.35-0.022-1.687-0.338-1.687-1.688V8.28
		h-2.361c-0.405,2.429-1.418,4.161-4.318,5.195l-0.787-0.765c2.743-0.854,3.688-2.406,4.003-4.431h-4.836v13.157h-1.259V7.201h5.037
		c-0.247-0.923-0.697-2.024-1.236-2.947h-5.309V3.175h9.469V0.926h1.305v2.249h9.694v1.079h-5.128
		c-0.383,0.855-0.945,1.912-1.529,2.947h3.846h0.675h0.585v12.46c0,0.944-0.27,1.529-1.192,1.664
		c-0.585,0.09-2.114,0.067-3.216,0.022l-0.18-1.146c0.898,0.045,2.227,0.067,2.631,0.022c0.539-0.045,0.697-0.293,0.697-0.742V8.28
		h-5.51V10.709z M141.55,13.836h7.624v5.173h-7.624v1.012h-1.124v-6.185h0.584H141.55z M147.195,7.201
		c0.539-0.99,1.057-2.069,1.417-2.947h-7.354c0.539,1.013,0.967,2.092,1.169,2.947H147.195z M148.005,18.042v-3.239h-6.455v3.239
		H148.005z"/>
	<path fill="#F7F9F9" d="M159.158,20.471v0.944h-1.236v-9.964h8.142v9.964h-1.26v-0.944H159.158z M164.804,19.323v-6.725h-5.646
		v6.725H164.804z M173.688,1.668V9.09h-12.64V1.668H173.688z M162.307,7.921h10.076V2.814h-10.076V7.921z M169.572,20.471v0.944
		h-1.237v-9.964h8.435v9.964h-1.282v-0.944H169.572z M175.487,19.323v-6.725h-5.915v6.725H175.487z"/>
	<path fill="#F7F9F9" d="M195.277,4.479l1.08,0.585c-1.574,6.994-5.218,12.527-12.37,15.653l-0.944-1.102
		c6.882-2.856,10.346-7.895,11.695-13.854h-14.395V4.479H195.277z M199.686,2.343c0,1.282-1.034,2.316-2.316,2.316
		c-1.305,0-2.316-1.034-2.316-2.339c0-1.282,1.012-2.316,2.316-2.316c1.282,0,2.316,1.034,2.316,2.316V2.343z M195.66,2.343
		c0,0.922,0.765,1.709,1.709,1.709c0.922,0,1.71-0.787,1.71-1.731c0-0.922-0.788-1.71-1.71-1.71c-0.944,0-1.709,0.788-1.709,1.71
		V2.343z"/>
	<path fill="#F7F9F9" d="M217.273,8.101l0.967,0.63c-1.282,5.308-5.33,9.761-11.088,12.032l-0.855-1.169
		c5.533-2.047,9.312-6.118,10.211-10.233h-15.002v-1.26H217.273z M216.486,2.973v1.259h-12.708V2.973H216.486z"/>
</g>
</svg>
