<?xml version="1.0" encoding="utf-8"?>
<!-- Generator: Adobe Illustrator 16.0.0, SVG Export Plug-In . SVG Version: 6.00 Build 0)  -->
<!DOCTYPE svg PUBLIC "-//W3C//DTD SVG 1.1//EN" "http://www.w3.org/Graphics/SVG/1.1/DTD/svg11.dtd">
<svg version="1.1" id="レイヤー_2" xmlns="http://www.w3.org/2000/svg" xmlns:xlink="http://www.w3.org/1999/xlink" x="0px"
	 y="0px" width="119.002px" height="22px" viewBox="0 0 119.002 22" enable-background="new 0 0 119.002 22" xml:space="preserve">
<g enable-background="new    ">
	<path fill="#F7F9F9" d="M8.84,6.301C8.997,4.861,9.087,3.31,9.087,1.623h1.35c0,1.664-0.09,3.216-0.248,4.678h7.535
		c-0.045,5.511-0.629,10.954-1.102,12.325c-0.517,1.553-1.372,2.137-3.148,2.137c-1.035,0-2.205-0.022-3.216-0.157v-1.327
		c1.012,0.136,2.114,0.158,3.059,0.158c0.945,0,1.552-0.248,1.957-1.282c0.45-1.192,1.012-6.163,1.012-10.571h-6.252
		C9.177,13.498,6.928,17.637,2.52,20.718l-0.99-1.012c4.161-2.767,6.32-6.59,7.152-12.123H1.755V6.301H8.84z"/>
	<path fill="#F7F9F9" d="M29.282,7.808l-0.922,1.08c-1.215-1.08-4.003-3.104-5.848-4.094l0.877-1.102
		C25.279,4.816,27.888,6.661,29.282,7.808z M38.346,7.854l0.922,1.012c-3.036,5.061-9.379,9.941-15.586,11.718l-0.675-1.327
		C29.058,17.682,35.422,12.891,38.346,7.854z"/>
	<path fill="#F7F9F9" d="M46.532,12.509c-0.697,0-1.304-0.607-1.304-1.327s0.607-1.327,1.327-1.327s1.327,0.607,1.327,1.327
		s-0.607,1.327-1.327,1.327H46.532z"/>
	<path fill="#F7F9F9" d="M58.519,4.997c0.36-1.305,0.607-2.497,0.765-3.531l1.372,0.157c-0.18,0.989-0.428,2.137-0.765,3.374h4.139
		v1.214h-4.476c-1.102,3.688-2.744,7.827-4.543,10.414l-1.169-0.697c1.732-2.43,3.306-6.253,4.341-9.717H54.38V4.997H58.519z
		 M67.987,8.348c-0.022,0.54-0.022,1.35-0.022,2.204c0,1.462,0.022,3.217,0.022,4.589c1.574,0.629,3.059,1.529,4.251,2.496
		l-0.787,0.989c-1.013-0.877-2.204-1.664-3.44-2.249v0.562c0,2.475-1.26,3.801-4.027,3.801c-2.608,0-4.385-1.484-4.385-3.238
		c0-1.912,1.62-3.239,4.364-3.239c0.899,0,1.844,0.158,2.766,0.45c0-1.282-0.021-2.834-0.021-4.139c0-0.877,0-1.709,0-2.227H67.987z
		 M63.938,15.343c-2.023,0-3.193,0.832-3.193,2.159c0,1.146,1.372,2.092,3.104,2.092c2.002,0,2.902-0.854,2.902-2.654
		c0-0.247,0-0.63,0-1.079C65.783,15.545,64.839,15.343,63.938,15.343z M72.014,8.258c-1.305-0.967-3.868-2.406-5.646-3.126
		l0.63-1.058c1.89,0.81,4.296,2.159,5.69,3.104L72.014,8.258z"/>
	<path fill="#F7F9F9" d="M81.278,7.471c0.72-0.832,1.462-1.26,2.182-1.26c0.81,0,1.619,0.518,2.475,1.643
		c1.911,2.519,6.364,7.106,10.008,9.783l-0.899,1.08c-3.531-2.767-7.85-7.197-9.761-9.56C84.54,8.258,84.022,7.83,83.46,7.83
		c-0.518,0-1.035,0.36-1.643,1.035c-1.214,1.372-3.936,4.655-5.803,6.882l-1.034-0.922C77.05,12.576,79.951,9.022,81.278,7.471z
		 M88.745,4.39c0.945,0.944,1.732,2.047,2.43,3.238l-0.766,0.518c-0.652-1.147-1.461-2.294-2.361-3.217L88.745,4.39z M91.467,3.31
		c0.922,0.944,1.731,2.069,2.407,3.239L93.132,7.11c-0.652-1.169-1.463-2.316-2.385-3.238L91.467,3.31z"/>
	<path fill="#F7F9F9" d="M107.411,9.787l-0.675,0.854c-0.787-0.81-2.114-2.023-3.441-3.081v2.812h-1.147V7.561
		c-1.124,1.462-2.676,2.699-4.07,3.509l-0.72-0.877c1.574-0.787,3.419-2.182,4.498-3.778h-4.161v-0.99h4.453V0.926h1.147v4.498
		h4.139v0.99h-4.139v0.157C104.802,7.65,106.489,8.978,107.411,9.787z M107.636,18.784l-0.787,1.012
		c-1.799-0.72-3.193-2.069-4.049-4.431c-0.629,2.474-1.889,4.296-4.521,5.533l-0.832-0.855c2.767-1.191,3.913-3.081,4.431-5.689
		h-4.184v-1.035h4.342c0.09-0.765,0.156-1.574,0.18-2.429l1.17,0.045c-0.046,0.832-0.113,1.642-0.203,2.384h4.251v1.035h-3.892
		C104.329,16.827,105.792,18.199,107.636,18.784z M99.382,1.69c0.719,1.057,1.215,2.047,1.507,2.946l-0.968,0.405
		c-0.247-0.9-0.719-1.867-1.371-2.901L99.382,1.69z M107.097,2.027c-0.45,0.878-1.17,1.979-1.912,2.992l-0.811-0.405
		c0.721-1.034,1.418-2.182,1.777-2.991L107.097,2.027z M111.819,17.659c-0.967,1.439-2.43,2.744-3.801,3.756l-1.058-0.72
		c1.327-0.854,2.789-2.114,3.712-3.44L111.819,17.659z M111.685,5.334c0.292-0.854,0.539-1.754,0.72-2.52h-4.746V1.713h10.504v1.102
		h-4.431c-0.225,0.766-0.518,1.643-0.832,2.52h4.565v11.628h-9.132V5.334H111.685z M109.593,8.91h6.567v-2.52h-6.567V8.91z
		 M109.593,12.396h6.567V9.854h-6.567V12.396z M109.593,15.905h6.567v-2.564h-6.567V15.905z M115.036,17.255
		c1.416,1.326,2.586,2.541,3.486,3.644l-1.148,0.494c-0.854-1.102-1.979-2.316-3.328-3.644L115.036,17.255z"/>
</g>
</svg>
