<?xml version="1.0" encoding="utf-8"?>
<!-- Generator: Adobe Illustrator 16.0.0, SVG Export Plug-In . SVG Version: 6.00 Build 0)  -->
<!DOCTYPE svg PUBLIC "-//W3C//DTD SVG 1.1//EN" "http://www.w3.org/Graphics/SVG/1.1/DTD/svg11.dtd">
<svg version="1.1" id="レイヤー_2" xmlns="http://www.w3.org/2000/svg" xmlns:xlink="http://www.w3.org/1999/xlink" x="0px"
	 y="0px" width="119.334px" height="22px" viewBox="0 0 119.334 22" enable-background="new 0 0 119.334 22" xml:space="preserve">
<g enable-background="new    ">
	<path fill="#F7F9F9" d="M7.197,7.336c0.697-0.787,1.395-1.215,2.137-1.215c0.765,0,1.552,0.473,2.316,1.417
		c2.069,2.474,6.59,7.31,10.121,10.031l-0.967,1.079c-3.554-2.946-7.939-7.646-9.761-9.761C10.369,8.123,9.851,7.74,9.334,7.74
		c-0.518,0-1.012,0.36-1.597,1.035c-1.147,1.282-4.071,4.812-5.803,6.972L0.81,14.848C2.699,12.711,5.893,8.843,7.197,7.336z
		 M19.792,6.729c0,1.35-1.102,2.451-2.474,2.451s-2.474-1.102-2.474-2.474s1.102-2.475,2.474-2.475s2.474,1.103,2.474,2.475V6.729z
		 M15.452,6.729c0,0.989,0.854,1.844,1.867,1.844s1.844-0.854,1.844-1.866c0-1.013-0.832-1.867-1.844-1.867
		s-1.867,0.854-1.867,1.867V6.729z"/>
	<path fill="#F7F9F9" d="M25.256,8.663c0.877,1.439,1.665,3.261,2.137,4.723l-1.102,0.45c-0.382-1.372-1.259-3.352-2.091-4.679
		L25.256,8.663z M37.019,8.505c-0.922,5.421-4.071,9.941-9.019,12.19l-0.81-1.057c4.926-2.069,7.759-6.253,8.592-11.403
		L37.019,8.505z M29.507,7.74c0.787,1.484,1.484,3.329,1.89,4.813l-1.103,0.45c-0.314-1.395-1.125-3.441-1.867-4.813L29.507,7.74z"
		/>
	<path fill="#F7F9F9" d="M55.686,13.679l-0.899,1.124c-2.497-1.776-6.523-4.003-9.559-5.42v11.38h-1.395V1.601h1.395v6.298
		C48.399,9.36,52.785,11.744,55.686,13.679z"/>
	<path fill="#F7F9F9" d="M64.299,11.406c-1.034,2.317-3.104,5.106-4.926,6.86l-1.057-0.787c1.777-1.574,3.891-4.431,4.746-6.567
		L64.299,11.406z M77.569,7.673h-8.525v10.302c0,1.979-0.719,2.788-2.811,2.788c-0.676,0-1.598-0.045-2.587-0.157v-1.305
		c0.854,0.136,1.642,0.158,2.317,0.158c1.371,0,1.686-0.473,1.686-1.62V7.673h-8.479V6.391h8.479V1.623h1.395v4.768h8.525V7.673z
		 M73.431,10.709c2.023,2.25,3.643,4.409,4.881,6.658l-1.215,0.675c-1.103-2.227-2.834-4.521-4.769-6.658L73.431,10.709z
		 M73.723,1.825c0.944,0.922,1.776,1.935,2.519,3.059l-0.697,0.495C74.847,4.3,73.97,3.22,73.093,2.343L73.723,1.825z M76.085,0.476
		c0.943,0.899,1.776,1.935,2.519,3.06l-0.697,0.494c-0.675-1.079-1.552-2.159-2.474-3.014L76.085,0.476z"/>
	<path fill="#F7F9F9" d="M95.718,13.679l-0.899,1.124c-2.497-1.776-6.522-4.003-9.56-5.42v11.38h-1.395V1.601h1.395v6.298
		C88.431,9.36,92.816,11.744,95.718,13.679z"/>
	<path fill="#F7F9F9" d="M104.825,3.018v7.107c0,3.891-1.102,7.557-5.51,10.413l-1.035-0.989c4.363-2.677,5.173-5.961,5.173-9.469
		V3.018H104.825z M111.19,2.68v15.159c2.182-1.146,5.42-3.913,6.949-6.185l0.652,1.26c-1.754,2.384-5.105,5.218-7.916,6.837
		l-1.08-0.63V2.68H111.19z"/>
</g>
</svg>
