<?xml version="1.0" encoding="utf-8"?>
<!-- Generator: Adobe Illustrator 16.0.0, SVG Export Plug-In . SVG Version: 6.00 Build 0)  -->
<!DOCTYPE svg PUBLIC "-//W3C//DTD SVG 1.1//EN" "http://www.w3.org/Graphics/SVG/1.1/DTD/svg11.dtd">
<svg version="1.1" id="レイヤー_2" xmlns="http://www.w3.org/2000/svg" xmlns:xlink="http://www.w3.org/1999/xlink" x="0px"
	 y="0px" width="244.334px" height="22px" viewBox="0 0 244.334 22" enable-background="new 0 0 244.334 22" xml:space="preserve">
<g enable-background="new    ">
	<path fill="#F7F9F9" d="M16.667,4.479l1.08,0.585c-1.574,6.994-5.218,12.527-12.37,15.653l-0.945-1.102
		c6.882-2.856,10.346-7.895,11.696-13.854H1.732V4.479H16.667z M21.075,2.343c0,1.282-1.035,2.316-2.316,2.316
		c-1.305,0-2.317-1.034-2.317-2.339c0-1.282,1.012-2.316,2.317-2.316c1.282,0,2.316,1.034,2.316,2.316V2.343z M17.049,2.343
		c0,0.922,0.765,1.709,1.709,1.709c0.922,0,1.709-0.787,1.709-1.731c0-0.922-0.788-1.71-1.709-1.71c-0.945,0-1.709,0.788-1.709,1.71
		V2.343z"/>
	<path fill="#F7F9F9" d="M38.662,8.101l0.967,0.63c-1.282,5.308-5.331,9.761-11.088,12.032l-0.854-1.169
		c5.533-2.047,9.312-6.118,10.211-10.233H22.895v-1.26H38.662z M37.875,2.973v1.259H25.167V2.973H37.875z"/>
	<path fill="#F7F9F9" d="M47.813,20.043v-3.036c-1.552,0.652-3.216,1.192-4.723,1.574l-0.72-0.967
		c3.059-0.652,6.703-2.002,8.974-3.666h-8.727v-0.989h9.536v-1.417h1.282v1.417h9.649v0.989h-9.447
		c0.652,1.35,1.507,2.451,2.542,3.352c1.664-0.81,3.306-1.71,4.206-2.385l0.945,0.765c-1.012,0.675-2.609,1.529-4.273,2.317
		c1.709,1.214,3.801,2.001,6.118,2.406l-0.72,1.034c-4.386-0.967-7.939-3.126-9.874-7.175c-0.967,0.811-2.182,1.553-3.509,2.182
		v3.441c2.159-0.247,4.543-0.517,6.275-0.742l0.022,0.968c-2.879,0.427-7.49,1.012-10.031,1.304l-0.27-1.079
		C45.812,20.246,46.756,20.156,47.813,20.043z M53.549,7.179h0.54v2.879c0,0.539-0.158,0.877-0.63,0.967
		c-0.382,0.09-1.35,0.067-2.047,0.022L51.3,10.215c0.45,0.022,1.147,0.022,1.327,0c0.202,0,0.292-0.09,0.292-0.271V8.033h-3.284
		v3.868h-1.214V8.033h-3.149v3.216h-1.147v-4.07h4.296V5.762h-5.578v-0.9h5.578V3.287h-2.609C45.52,3.827,45.16,4.345,44.8,4.771
		l-1.012-0.292c0.787-0.944,1.484-2.114,1.822-3.396l1.057,0.067c-0.112,0.428-0.248,0.854-0.427,1.26h2.182V0.926h1.214V2.41h4.251
		v0.877h-4.251v1.574h5.173v0.9h-5.173v1.417h3.284H53.549z M57.147,1.87v7.062h-1.192V1.87H57.147z M61.961,0.926v9.244
		c0,0.742-0.225,1.191-0.945,1.327c-0.45,0.067-1.642,0.067-2.542,0.022l-0.135-1.058c0.652,0.022,1.642,0.045,1.912,0.022
		c0.36-0.022,0.472-0.18,0.472-0.473V0.926H61.961z"/>
	<path fill="#F7F9F9" d="M69.898,20.673v0.742h-1.259v-6.77c-0.945,0.495-1.89,0.922-2.834,1.26l-0.697-1.058
		c3.396-1.079,6.792-3.306,9.559-6.792h1.237c2.901,3.486,6.388,5.601,9.829,6.792L84.99,15.95c-0.99-0.383-1.979-0.81-2.946-1.327
		v6.792h-1.305v-0.742H69.898z M74.644,3.13V0.926h1.305V3.13h8.614v3.936h-1.26V4.254H67.447v2.812H66.21V3.13H74.644z
		 M72.732,5.762c-1.147,1.799-3.216,3.44-4.971,4.431l-0.787-0.945c1.642-0.854,3.688-2.384,4.746-3.98L72.732,5.762z
		 M80.739,19.549v-4.701H69.898v4.701H80.739z M80.537,13.724c-1.822-1.17-3.599-2.654-5.263-4.566
		c-1.597,1.912-3.306,3.396-5.083,4.566H80.537z M83.933,9.135l-0.765,0.945c-1.777-1.013-3.981-2.632-5.173-4.318l1.012-0.518
		C80.109,6.751,82.246,8.258,83.933,9.135z"/>
	<path fill="#F7F9F9" d="M99.99,20.65v0.765h-1.192v-6.859h5.263c-2.047-0.99-3.846-2.384-5.038-4.206h-2.384
		c-1.192,1.776-2.879,3.148-5.038,4.206h4.948v6.859h-1.192V20.65h-4.498v0.765h-1.169v-6.05c-0.518,0.202-1.08,0.359-1.642,0.54
		l-0.72-0.99c3.599-0.944,6.185-2.406,7.872-4.565h-7.557V9.293h8.277c0.472-0.788,0.854-1.688,1.147-2.654l1.282,0.09
		c-0.292,0.922-0.63,1.776-1.057,2.564h10.729v1.057h-7.625c1.777,2.271,4.858,3.778,7.939,4.431l-0.765,1.058
		c-0.54-0.136-1.08-0.293-1.597-0.495v6.072h-1.237V20.65H99.99z M96.234,1.601v5.668h-6.748V1.601H96.234z M90.656,6.256h4.386
		V2.612h-4.386V6.256z M95.356,19.616V15.59h-4.498v4.026H95.356z M106.175,1.601v5.668h-7.04V1.601H106.175z M104.735,19.616V15.59
		H99.99v4.026H104.735z M100.305,6.256h4.656V2.612h-4.656V6.256z"/>
	<path fill="#F7F9F9" d="M128.237,3.422h0.675c-0.225,8.007-0.495,12.258-1.192,12.91c-0.292,0.248-0.697,0.36-1.281,0.383
		c-0.607,0.022-1.912,0-2.654-0.045l-0.135-1.147c0.72,0.067,1.912,0.067,2.474,0.067c0.271,0,0.45-0.067,0.585-0.202
		c0.449-0.473,0.675-3.937,0.877-10.773h-12.348c-1.057,1.957-2.429,3.733-4.048,5.308l-1.012-0.765
		c2.452-2.271,4.318-5.105,5.286-8.231l1.237,0.27c-0.247,0.765-0.54,1.507-0.877,2.227h11.808H128.237z M114.585,12.823h0.607
		h7.287V8.73h-8.434V7.628h9.694v6.298h-8.547v4.184c0,1.214,0.63,1.507,2.722,1.552c2.159,0.045,6.095,0.045,8.456,0
		c2.497-0.045,2.699-0.315,2.812-2.812l1.259,0.247c-0.27,3.307-0.63,3.734-3.937,3.802c-2.541,0.045-6.387,0.022-8.704,0
		c-3.014-0.045-3.869-0.607-3.869-2.767v-5.309H114.585z"/>
	<path fill="#F7F9F9" d="M137.771,20.021V16.67c-1.552,0.675-3.194,1.214-4.724,1.619l-0.719-0.967
		c3.104-0.697,6.792-2.092,9.041-3.802h-8.794v-0.989h9.491v-1.664h1.305v1.664h9.672v0.989h-9.447
		c0.652,1.439,1.508,2.632,2.564,3.599c1.642-0.922,3.283-1.889,4.184-2.631l0.922,0.765c-1.012,0.742-2.609,1.687-4.273,2.563
		c1.709,1.282,3.778,2.114,6.117,2.564l-0.742,1.012c-4.431-1.012-7.895-3.283-9.806-7.534c-0.944,0.832-2.182,1.574-3.509,2.227
		v3.801c2.159-0.247,4.565-0.54,6.275-0.765l0.045,0.967c-2.902,0.428-7.513,1.013-10.031,1.305l-0.293-1.079
		C135.792,20.246,136.737,20.156,137.771,20.021z M137.119,6.931V0.948h1.237v10.48h-1.237V8.078
		c-1.214,0.787-2.812,1.776-3.801,2.339l-0.562-1.034C133.835,8.843,135.747,7.763,137.119,6.931z M133.971,1.69
		c1.259,1.079,2.204,2.137,2.834,3.148l-1.058,0.54c-0.562-1.012-1.484-2.047-2.676-3.104L133.971,1.69z M145.554,9.18V5.177h-6.006
		V4.142h6.006V0.948h1.26v3.193h6.14v1.035h-6.14V9.18h5.285v1.035h-11.718V9.18H145.554z"/>
	<path fill="#F7F9F9" d="M159.654,12.509c-0.697,0-1.304-0.607-1.304-1.327s0.606-1.327,1.326-1.327s1.327,0.607,1.327,1.327
		s-0.607,1.327-1.327,1.327H159.654z"/>
	<path fill="#F7F9F9" d="M166.985,7.11c1.844,0.9,3.328,1.822,4.431,2.767l-0.832,0.945c-1.058-0.945-2.519-1.912-4.273-2.789
		L166.985,7.11z M171.236,13.004l0.922,0.81c-1.124,2.451-3.036,5.803-4.296,7.602l-1.057-0.787
		C168.087,18.896,170.089,15.5,171.236,13.004z M167.907,1.038c1.777,0.877,3.217,1.754,4.273,2.677l-0.832,0.944
		c-1.012-0.899-2.43-1.821-4.116-2.677L167.907,1.038z M174.43,20.516v0.922h-1.237V6.121h5.623V0.926h1.282v5.195h5.938v15.316
		h-1.283v-0.922H174.43z M178.815,12.599V7.291h-4.386v5.308H178.815z M178.815,19.346v-5.622h-4.386v5.622H178.815z
		 M184.753,12.599V7.291h-4.655v5.308H184.753z M184.753,19.346v-5.622h-4.655v5.622H184.753z"/>
	<path fill="#F7F9F9" d="M193.389,12.509c-0.697,0-1.304-0.607-1.304-1.327s0.606-1.327,1.326-1.327s1.327,0.607,1.327,1.327
		s-0.607,1.327-1.327,1.327H193.389z"/>
	<path fill="#F7F9F9" d="M205.263,12.711v8.704h-1.236v-8.142c-1.395,0.607-2.789,1.215-3.779,1.642l-0.404-1.214
		c1.034-0.405,2.608-1.035,4.184-1.688V6.818h-2.07c-0.292,1.282-0.652,2.475-1.102,3.509l-1.035-0.338
		c0.923-2.136,1.553-4.88,1.688-7.646l1.057,0.135c-0.045,1.08-0.18,2.159-0.359,3.193h1.822V0.926h1.236v4.745h2.385v1.147h-2.385
		v4.656c0.765-0.315,1.507-0.63,2.137-0.923l0.158,1.103C206.882,11.969,206.095,12.329,205.263,12.711z M216.284,21.348
		c-0.586,0.067-2.115,0.067-3.239,0.022l-0.202-1.214c0.944,0.045,2.339,0.045,2.744,0.022c0.517-0.045,0.652-0.271,0.652-0.72
		v-6.365h-8.705v-1.147h8.705V9.157h-8.84V8.033h5.825V4.951h-4.296V3.827h4.296V0.926h1.26v2.901h4.634v1.124h-4.634v3.082h6.005
		v1.124h-2.969v2.789h2.834v1.147h-2.834v6.59C217.521,20.628,217.229,21.213,216.284,21.348z M212.438,18.672
		c-0.742-1.282-1.89-2.609-3.351-4.004l0.922-0.72c1.529,1.417,2.699,2.744,3.508,3.958L212.438,18.672z"/>
	<path fill="#F7F9F9" d="M232.025,19.166V8.663h-5.87v-1.17h13.248v1.17h-6.051v4.183h6.973v1.17h-6.973v5.511
		c0.72,0.135,1.462,0.225,2.294,0.225c0.968,0.022,6.185,0.022,7.22-0.022l-0.225,1.237c-1.035,0.022-6.117,0.045-7.197,0.022
		c-3.644-0.067-6.162-1.147-8.143-4.476c-0.742,1.934-1.911,3.711-3.823,4.902l-1.079-0.742c3.463-2.024,4.408-6.005,4.768-9.244
		l1.305,0.068c-0.157,1.169-0.383,2.406-0.72,3.599C228.899,17.3,230.294,18.536,232.025,19.166z M232.025,3.558V0.926h1.327v2.632
		h8.682v4.341h-1.305V4.704h-15.901v3.194h-1.259V3.558H232.025z"/>
</g>
</svg>
